<svg xmlns="http://www.w3.org/2000/svg" xmlns:xlink="http://www.w3.org/1999/xlink" width="500" zoomAndPan="magnify" viewBox="0 0 375 374.999991" height="500" preserveAspectRatio="xMidYMid meet" version="1.0"><defs><clipPath id="e5344f65f3"><path d="M 124.953125 173 L 194 173 L 194 233.140625 L 124.953125 233.140625 Z M 124.953125 173 " clip-rule="nonzero"/></clipPath><clipPath id="4449dbd32c"><path d="M 193 141.640625 L 261.453125 141.640625 L 261.453125 202 L 193 202 Z M 193 141.640625 " clip-rule="nonzero"/></clipPath></defs><g clip-path="url(#e5344f65f3)"><path fill="#7f5af0" d="M 170.875 215.785156 L 170.875 224.085938 L 133.28125 206.621094 L 133.28125 199.882812 L 170.875 182.417969 L 170.875 190.722656 L 142.445312 203.171875 L 142.445312 203.328125 Z M 193.203125 173.195312 L 130.332031 173.195312 C 127.367188 173.195312 124.960938 175.601562 124.960938 178.570312 L 124.960938 227.9375 C 124.960938 230.902344 127.367188 233.308594 130.332031 233.308594 L 175.75 233.308594 L 193.203125 173.195312 " fill-opacity="1" fill-rule="nonzero"/></g><g clip-path="url(#4449dbd32c)"><path fill="#7f5af0" d="M 253.023438 175.328125 L 215.429688 192.558594 L 215.429688 184.257812 L 244.484375 171.804688 L 244.484375 171.648438 L 215.429688 159.195312 L 215.429688 150.894531 L 253.023438 168.125 Z M 210.65625 141.667969 L 193.203125 201.785156 L 255.972656 201.785156 C 258.941406 201.785156 261.347656 199.378906 261.347656 196.410156 L 261.347656 147.042969 C 261.347656 144.074219 258.941406 141.667969 255.972656 141.667969 L 210.65625 141.667969 " fill-opacity="1" fill-rule="nonzero"/></g></svg>